#!OML:ASF E:\Mandelcareful walks\Project 1\Capture day 1\Session 1\Subject1.ASF
:FULLY-SPECIFIED
:DEGREES
855
root 16.1132 16.3145 1.64842 674.844 97.3514 670.271
lowerback 15.0366 -0.431872 0.49484
upperback 6.11576 -0.11023 1.39728
thorax -1.96197 0.0819555 1.19429
lowerneck -20.9821 10.1032 7.2415
upperneck 28.0918 16.7059 -11.6329
head 15.0003 6.629 -2.56281
rclavicle -5.1684e-015 1.11319e-014
rhumerus -25.8406 -3.66328 -76.6435
rradius 38.7154
rwrist -18.4033
rhand -13.2914 -28.7752
rfingers 7.12502
rthumb 12.8122 -58.362
lclavicle -5.1684e-015 1.11319e-014
lhumerus -30.2903 -6.5208 91.1641
lradius 37.2061
lwrist 19.4402
lhand -22.9033 -14.1509
lfingers 7.12502
lthumb 3.53647 15.7995
rfemur -25.8968 -9.95285 13.9064
rtibia 43.5101
rfoot -21.4044 -1.58214
rtoes 10.4185
lfemur -2.78651 -2.82016 -13.6544
ltibia 42.0455
lfoot -13.9134 0.560933
ltoes -17.8249
856
root 16.1574 16.327 1.70084 677.592 97.5619 673.14
lowerback 15.4145 -0.451432 1.19253
upperback 6.19713 -0.0159935 1.42486
thorax -2.07997 0.143991 0.814552
lowerneck -20.6744 10.2074 7.51862
upperneck 27.9107 16.8993 -12.015
head 14.9564 6.71811 -2.72677
rclavicle 1.98785e-015 7.95139e-015
rhumerus -25.7816 -3.9947 -76.351
rradius 38.3542
rwrist -18.357
rhand -13.5144 -28.6572
rfingers 7.12502
rthumb 12.5973 -58.2574
lclavicle 1.98785e-015 7.95139e-015
lhumerus -30.394 -6.7826 91.284
lradius 37.3353
lwrist 19.3537
lhand -22.6066 -14.3028
lfingers 7.12502
lthumb 3.82301 15.6427
rfemur -25.2794 -9.99094 14.1612
rtibia 43.0945
rfoot -21.589 -1.80443
rtoes 10.1746
lfemur -4.73685 -1.65227 -13.2626
ltibia 45.5147
lfoot -12.5435 0.866884
ltoes -18.1377
857
root 16.2002 16.3385 1.74931 681.59 97.6079 677.29
lowerback 15.8005 -0.562157 2.0687
upperback 6.32249 -0.00218914 1.52636
thorax -2.15276 0.169977 0.424665
lowerneck -20.5353 10.414 7.88801
upperneck 27.8069 17.2614 -12.5004
head 15.0338 6.86306 -2.90263
rclavicle -2.38542e-015 2.06736e-014
rhumerus -25.7269 -3.90048 -76.187
rradius 38.1358
rwrist -18.5602
rhand -13.7806 -28.3127
rfingers 7.12502
rthumb 12.3407 -57.9285
lclavicle -2.38542e-015 2.06736e-014
lhumerus -30.4682 -6.76528 91.2818
lradius 37.4408
lwrist 19.2899
lhand -22.3555 -13.7026
lfingers 7.12502
lthumb 4.06548 16.2383
rfemur -24.6403 -10.0475 14.707
rtibia 42.6523
rfoot -21.7312 -2.07068
rtoes 10.1465
lfemur -6.73491 -0.380441 -12.6699
ltibia 48.9541
lfoot -11.1434 1.52631
ltoes -16.7627
858
root 16.2434 16.3505 1.79185 685.175 97.8548 681.087
lowerback 16.2694 -0.685157 2.8619
upperback 6.44671 -0.00474466 1.60265
thorax -2.26865 0.187837 0.0584709
lowerneck -20.4657 10.5817 8.14177
upperneck 27.6086 17.5429 -12.8993
head 15.0518 6.9717 -3.03838
rclavicle -5.56597e-015 -4.6118e-014
rhumerus -25.8217 -3.91664 -75.9478
rradius 38.1291
rwrist -18.7032
rhand -13.8439 -28.2215
rfingers 7.12502
rthumb 12.2796 -57.841
lclavicle -5.56597e-015 -4.6118e-014
lhumerus -30.5522 -6.81455 91.3161
lradius 37.4791
lwrist 19.2179
lhand -22.2581 -13.086
lfingers 7.12502
lthumb 4.15949 16.8531
rfemur -23.9302 -10.3657 15.087
rtibia 42.2288
rfoot -21.8471 -2.26792
rtoes 9.9616
lfemur -8.70327 0.781407 -12.3296
ltibia 52.2976
lfoot -10.0608 2.54481
ltoes -14.7432
859
root 16.2831 16.3631 1.82858 686.594 98.1413 682.681
lowerback 16.7996 -0.720248 3.38573
upperback 6.48941 0.0709574 1.6375
thorax -2.49971 0.236193 -0.213529
lowerneck -20.13 10.7077 8.41089
upperneck 27.3434 17.7706 -13.3162
head 14.9801 7.07711 -3.20579
rclavicle 2.38542e-015 4.77083e-015
rhumerus -26.0197 -3.84979 -75.6342
rradius 38.053
rwrist -18.8608
rhand -13.823 -28.1983
rfingers 7.12502
rthumb 12.2998 -57.8165
lclavicle 2.38542e-015 4.77083e-015
lhumerus -30.77 -6.93195 91.4428
lradius 37.4142
lwrist 19.1768
lhand -22.3577 -13.091
lfingers 7.12502
lthumb 4.0634 16.85
rfemur -23.3244 -10.6357 15.1936
rtibia 41.8801
rfoot -21.9523 -2.3294
rtoes 10.0414
lfemur -10.6399 2.19314 -12.3625
ltibia 55.4319
lfoot -9.20278 3.89134
ltoes -12.0241
860
root 16.3189 16.3693 1.86631 686.755 98.3012 682.959
lowerback 17.3312 -0.678279 3.67316
upperback 6.50906 0.213861 1.69329
thorax -2.75272 0.31191 -0.344111
lowerneck -19.8676 10.8496 8.48558
upperneck 27.2525 18.0607 -13.5525
head 14.9673 7.20261 -3.25442
rclavicle 9.54166e-015 3.65764e-014
rhumerus -26.2498 -3.36501 -75.3355
rradius 38.1067
rwrist -19.2228
rhand -13.7653 -28.2276
rfingers 7.12502
rthumb 12.3554 -57.8425
lclavicle 9.54166e-015 3.65764e-014
lhumerus -31.0466 -7.0917 91.627
lradius 37.2662
lwrist 19.3287
lhand -22.6357 -13.1353
lfingers 7.12502
lthumb 3.79493 16.8107
rfemur -22.8859 -10.6125 15.2469
rtibia 41.6256
rfoot -22.0875 -2.46157
rtoes 10.2084
lfemur -12.5222 4.01573 -12.5604
ltibia 58.2429
lfoot -9.11476 4.92776
ltoes -12.2387
861
root 16.3582 16.371 1.90413 686.686 98.4405 683.006
lowerback 17.7087 -0.639824 3.88574
upperback 6.67601 0.336284 1.71734
thorax -2.7676 0.385058 -0.462872
lowerneck -20.0091 11.0176 8.45358
upperneck 27.2109 18.32 -13.5916
head 15.0203 7.29727 -3.19683
rclavicle 1.11319e-014 6.36111e-015
rhumerus -26.231 -3.14056 -75.1135
rradius 38.2862
rwrist -19.2936
rhand -13.6869 -28.7099
rfingers 7.12502
rthumb 12.431 -58.3202
lclavicle 1.11319e-014 6.36111e-015
lhumerus -31.1393 -7.25662 91.7077
lradius 37.0895
lwrist 19.427
lhand -22.8325 -13.2514
lfingers 7.12502
lthumb 3.60486 16.6978
rfemur -22.4799 -10.6091 15.2911
rtibia 41.4381
rfoot -22.2315 -2.57686
rtoes 10.456
lfemur -14.2928 5.76116 -12.8434
ltibia 60.6341
lfoot -9.56246 4.98246
ltoes -13.0887
862
root 16.3992 16.3759 1.93698 687.448 98.4351 683.918
lowerback 17.761 -0.622939 4.24075
upperback 7.14498 0.447665 1.77926
thorax -2.28871 0.475037 -0.617417
lowerneck -20.3991 11.2219 8.65323
upperneck 26.9439 18.5924 -13.9503
head 15.1031 7.37161 -3.286
rclavicle -1.19271e-014 -3.18055e-014
rhumerus -25.5227 -3.25652 -74.9334
rradius 38.0549
rwrist -19.049
rhand -13.6599 -29.0814
rfingers 7.12502
rthumb 12.457 -58.6902
lclavicle -1.19271e-014 -3.18055e-014
lhumerus -30.806 -7.25034 91.6811
lradius 36.964
lwrist 19.2925
lhand -22.7911 -13.1995
lfingers 7.12502
lthumb 3.64482 16.7491
rfemur -22.0702 -10.688 15.5257
rtibia 41.2798
rfoot -22.323 -2.57262
rtoes 10.8256
lfemur -15.9846 7.31341 -12.9802
ltibia 62.5958
lfoot -9.81826 4.81496
ltoes -12.6747
863
root 16.4409 16.383 1.96762 688.633 98.3681 685.291
lowerback 18.3121 -0.589989 4.76384
upperback 7.33315 0.636079 1.82364
thorax -2.35969 0.589166 -0.904431
lowerneck -20.6402 11.3741 8.88229
upperneck 26.7903 18.8533 -14.3711
head 15.2188 7.44629 -3.4157
rclavicle -7.95139e-016 0
rhumerus -25.2822 -3.47634 -74.7296
rradius 37.8905
rwrist -18.7793
rhand -13.6125 -29.1381
rfingers 7.12502
rthumb 12.5027 -58.7441
lclavicle -7.95139e-016 0
lhumerus -30.9079 -7.50189 91.7267
lradius 36.905
lwrist 19.3211
lhand -22.7455 -12.9772
lfingers 7.12502
lthumb 3.68887 16.9706
rfemur -21.628 -10.7175 15.8441
rtibia 41.1203
rfoot -22.4206 -2.61633
rtoes 11.1367
lfemur -17.6563 8.77429 -13.0877
ltibia 64.1502
lfoot -9.90509 4.42819
ltoes -12.6917
864
root 16.4855 16.3858 1.99256 688.723 98.4798 685.535
lowerback 18.6378 -0.567841 5.10693
upperback 7.58403 0.763892 1.80163
thorax -2.24747 0.67689 -1.14714
lowerneck -20.5085 11.4925 9.17846
upperneck 26.361 19.0436 -14.914
head 15.1456 7.5176 -3.63223
rclavicle 3.02153e-014 -1.59028e-015
rhumerus -24.9889 -3.77836 -74.5236
rradius 37.7975
rwrist -18.6475
rhand -13.6801 -28.8492
rfingers 7.12502
rthumb 12.4375 -58.4592
lclavicle 3.02153e-014 -1.59028e-015
lhumerus -30.9253 -7.95579 91.8103
lradius 36.7515
lwrist 19.5076
lhand -22.5636 -12.8971
lfingers 7.12502
lthumb 3.86453 17.0476
rfemur -21.1717 -10.8092 15.8646
rtibia 40.9749
rfoot -22.561 -2.67591
rtoes 11.5209
lfemur -19.3292 10.0149 -13.5727
ltibia 65.3104
lfoot -9.95401 4.01439
ltoes -12.8064
865
root 16.5277 16.3802 2.01077 688.92 98.6004 685.77
lowerback 19.0156 -0.594398 5.29577
upperback 7.61311 0.801787 1.84206
thorax -2.40633 0.700332 -1.22207
lowerneck -20.148 11.59 9.28311
upperneck 26.1125 19.2599 -15.2489
head 15.0557 7.61684 -3.74133
rclavicle -2.70347e-014 -2.06736e-014
rhumerus -24.8857 -3.58725 -74.324
rradius 37.6196
rwrist -18.8085
rhand -13.9723 -28.4446
rfingers 7.12502
rthumb 12.1558 -58.0715
lclavicle -2.70347e-014 -2.06736e-014
lhumerus -31.3415 -7.97217 91.9229
lradius 36.5823
lwrist 19.4023
lhand -22.3158 -13.1516
lfingers 7.12502
lthumb 4.10382 16.7886
rfemur -20.8929 -10.9287 15.8887
rtibia 40.8889
rfoot -22.7101 -2.8192
rtoes 11.7196
lfemur -21.0716 11.0014 -14.1632
ltibia 66.1218
lfoot -10.2346 3.70539
ltoes -11.874
866
root 16.5678 16.37 2.03069 690.041 98.664 686.876
lowerback 19.4225 -0.631034 5.63382
upperback 7.62223 0.856489 1.86078
thorax -2.59624 0.732999 -1.40851
lowerneck -20.0286 11.6733 9.25175
upperneck 26.0296 19.4287 -15.3469
head 15.0321 7.68701 -3.73775
rclavicle -1.27222e-014 4.77083e-015
rhumerus -24.9326 -3.54705 -74.2366
rradius 37.6547
rwrist -18.9382
rhand -14.1808 -28.5583
rfingers 7.12502
rthumb 11.9547 -58.1969
lclavicle -1.27222e-014 4.77083e-015
lhumerus -31.7179 -8.09373 91.9483
lradius 36.321
lwrist 19.2399
lhand -22.2328 -13.6766
lfingers 7.12502
lthumb 4.18401 16.2621
rfemur -20.7566 -10.8912 16.1258
rtibia 40.8905
rfoot -22.9086 -3.25235
rtoes 11.7371
lfemur -22.8608 11.808 -14.6424
ltibia 66.5475
lfoot -10.7111 3.64232
ltoes -10.8206
867
root 16.6135 16.362 2.05328 690.939 98.8189 687.765
lowerback 19.8285 -0.657816 5.82644
upperback 7.6581 0.902043 1.88755
thorax -2.75981 0.760476 -1.50276
lowerneck -20.0978 11.7713 9.21596
upperneck 26.035 19.6512 -15.4907
head 15.1063 7.75927 -3.73256
rclavicle 3.49861e-014 1.27222e-014
rhumerus -25.0213 -3.50301 -74.1528
rradius 37.8456
rwrist -19.1358
rhand -14.196 -29.023
rfingers 7.12502
rthumb 11.9401 -58.6624
lclavicle 3.49861e-014 1.27222e-014
lhumerus -31.9718 -8.27102 92.0106
lradius 35.9692
lwrist 19.0951
lhand -22.0909 -13.5389
lfingers 7.12502
lthumb 4.32104 16.397
rfemur -20.6349 -10.7725 16.3043
rtibia 40.9782
rfoot -23.1119 -3.81649
rtoes 11.8093
lfemur -24.5464 12.4393 -15.2328
ltibia 66.4963
lfoot -11.2274 3.84537
ltoes -9.94434
868
root 16.6626 16.3576 2.0757 691.181 98.9804 687.998
lowerback 20.151 -0.62566 5.83508
upperback 7.74534 0.986485 1.94886
thorax -2.82687 0.808188 -1.46377
lowerneck -20.0667 11.7994 9.26944
upperneck 25.9194 19.8162 -15.8822
head 15.1474 7.80189 -3.85734
rclavicle -1.98785e-014 1.27222e-014
rhumerus -25.0505 -3.4946 -73.9707
rradius 38.0559
rwrist -19.3879
rhand -14.0918 -28.9063
rfingers 7.12502
rthumb 12.0406 -58.5399
lclavicle -1.98785e-014 1.27222e-014
lhumerus -32.2094 -8.42415 92.1511
lradius 35.8564
lwrist 18.8456
lhand -21.9328 -12.716
lfingers 7.12502
lthumb 4.47365 17.2167
rfemur -20.5724 -10.5407 16.389
rtibia 41.1431
rfoot -23.2828 -4.40796
rtoes 11.623
lfemur -26.0671 12.8896 -15.8955
ltibia 65.9605
lfoot -11.8092 4.05848
ltoes -8.67022
869
root 16.7093 16.3499 2.09442 691.115 99.1389 687.954
lowerback 20.4675 -0.592769 5.87715
upperback 7.9246 1.07688 1.93279
thorax -2.78826 0.867831 -1.52667
lowerneck -20.1972 11.8233 9.2599
upperneck 25.7732 19.889 -16.0862
head 15.1558 7.80722 -3.91042
rclavicle 1.51076e-014 -2.70347e-014
rhumerus -24.9125 -3.79854 -73.8686
rradius 38.2026
rwrist -19.4952
rhand -13.8879 -28.4467
rfingers 7.12502
rthumb 12.2372 -58.0687
lclavicle 1.51076e-014 -2.70347e-014
lhumerus -32.289 -8.73518 92.202
lradius 35.8542
lwrist 18.7646
lhand -21.8365 -12.2017
lfingers 7.12502
lthumb 4.56664 17.7291
rfemur -20.4937 -10.2329 16.4052
rtibia 41.3753
rfoot -23.5251 -4.95246
rtoes 11.2398
lfemur -27.4283 13.0646 -16.5554
ltibia 65.0016
lfoot -12.4343 4.14624
ltoes -7.78267
